<?xml version="1.0" encoding="UTF-8"?>
<!DOCTYPE svg PUBLIC "-//W3C//DTD SVG 1.1//EN" "http://www.w3.org/Graphics/SVG/1.1/DTD/svg11.dtd">
<!-- Creator: CorelDRAW X7 -->
<svg xmlns="http://www.w3.org/2000/svg" xml:space="preserve" width="10.4167in" height="6.94444in" version="1.1" style="shape-rendering:geometricPrecision; text-rendering:geometricPrecision; image-rendering:optimizeQuality; fill-rule:evenodd; clip-rule:evenodd"
viewBox="0 0 10417 6944"
 xmlns:xlink="http://www.w3.org/1999/xlink">
 <defs>
  <style type="text/css">
   <![CDATA[
    .fil0 {fill:white;fill-rule:nonzero}
    .fil1 {fill:url(#id0);fill-rule:nonzero}
   ]]>
  </style>
  <linearGradient id="id0" gradientUnits="userSpaceOnUse" x1="2556.21" y1="7299.5" x2="7860.45" y2="-355.063">
   <stop offset="0" style="stop-opacity:1; stop-color:#CACBCD"/>
   <stop offset="0.188235" style="stop-opacity:1; stop-color:#DADBDC"/>
   <stop offset="0.568627" style="stop-opacity:1; stop-color:#EAEBEC"/>
   <stop offset="0.85098" style="stop-opacity:1; stop-color:#F2F3F3"/>
   <stop offset="0.968627" style="stop-opacity:1; stop-color:#FEFEFE"/>
   <stop offset="0.988235" style="stop-opacity:1; stop-color:#FEFEFE"/>
   <stop offset="1" style="stop-opacity:1; stop-color:#FEFEFE"/>
  </linearGradient>
 </defs>
 <g id="BACKGROUND">
  <metadata id="CorelCorpID_0Corel-Layer"/>
  <polygon class="fil0" points="10417,6944 0,6944 0,0 10417,0 "/>
 </g>
 <g id="OBJECTS">
  <metadata id="CorelCorpID_1Corel-Layer"/>
  <path class="fil1" d="M5443 6581l0 -429 -405 -233 0 459 -377 217 0 -451 -398 230 -383 -222 0 -421c11,-3 20,-13 20,-26 0,-2 0,-5 -1,-7l368 -213 3 -2 0 -467 -397 230 -391 -226 -391 226 -384 -222 0 -443 398 -230 -398 -229 0 -459 -401 231 -3 2 0 443 -358 -206c1,-2 1,-5 1,-7 0,-13 -9,-23 -20,-26l0 -873 387 -223 4 -2 0 -468 -402 232 -3 2 0 451 -384 222 -377 -218 381 -219 3 -2 0 -468 -401 232 -4 2 0 895 -357 -207c0,-2 1,-5 1,-7 0,-13 -9,-23 -21,-26l0 -429 -383 -222 376 -217 7 4 0 -8 7 -4 -7 -4 0 -452 -371 -214c1,-2 1,-5 1,-7 0,-15 -12,-28 -27,-28 -15,0 -28,13 -28,28 0,12 9,23 21,26l0 421 -349 201 0 16 356 -205 0 0 377 218 -370 213 0 0 -7 4 -7 -4 0 0 -349 -201 0 16 342 197 -342 198 0 16 349 -202 0 435 -349 202 0 16 150 -87 206 -119 364 211c0,2 -1,5 -1,7 0,2 1,5 1,7l-364 211 0 0 -356 -206 0 16 349 202 0 435 -349 -202 0 17 342 197 -342 197 0 16 348 -201 0 435 0 0 -348 201 0 16 359 -207 3 -2 0 -443 1 0 0 -459 364 -211c3,4 8,6 13,7l0 429 383 222 -380 219 -3 2 0 452 -365 210c-5,-5 -11,-8 -19,-8 -15,0 -27,12 -27,27 0,13 8,23 20,27l0 871 -349 202 0 16 348 -201 0 435 0 0 -348 201 0 16 349 -202 0 1 398 -230 398 230 0 -460 387 -223 3 -2 0 -429c12,-3 20,-14 20,-26 0,-15 -12,-27 -27,-27 -15,0 -27,12 -27,27 0,2 0,5 1,7l-368 212 -4 2 0 443 -376 -217 0 -895 383 -221 398 230 0 -460 364 -210c4,3 8,6 13,7l0 429 371 215c0,2 -1,4 -1,7 0,2 1,4 1,7l-368 212 -3 2 0 902 -362 209c-5,-7 -13,-11 -23,-11 -15,0 -27,12 -27,27 0,13 9,23 20,26l0 442 391 -225 0 443 186 107 28 0 -200 -115 0 -435 377 217 0 333 14 0 0 -341 -384 -221 378 -218 364 211c0,2 -1,4 -1,7 0,15 12,27 27,27 15,0 28,-12 28,-27 0,-13 -9,-23 -21,-26l0 -873 384 -221 377 217 -380 220 -4 2 0 451 -7 4 7 4 0 444 -387 223 -4 2 0 115 14 0 0 -107 377 -217 0 324 14 0 0 -324 377 217 0 8 7 -4 179 103 28 0 -193 -111 0 0 357 -206c4,3 8,6 13,7l0 310 14 0 0 -310c4,-1 9,-4 12,-7l365 210 0 107 13 0 0 -107 377 -217 0 324 14 0 0 -332 377 -218 0 435 0 0 -200 115 28 0 183 -105 3 -2 0 -443 358 206c-1,3 -1,5 -1,8 0,15 12,27 27,27 15,0 27,-12 27,-27 0,-13 -9,-24 -20,-27zm-4689 363l0 -349 -379 219c-5,-5 -11,-8 -19,-8 -8,0 -14,3 -19,8l-337 -195 0 16 330 191c-1,2 -1,5 -1,7 0,13 8,23 20,26l0 0 0 85 14 0 0 -85c12,-3 20,-13 20,-26 0,-2 0,-5 -1,-7l358 -207 0 0 0 325 14 0zm2185 -6944l28 0 -240 138 0 0c1,3 1,5 1,8 0,2 0,4 -1,7l364 210 206 -119 171 -98 -252 -146 28 0 231 134 0 -134 14 0 0 142 377 217 0 0 0 -359 14 0 0 359 377 -217 0 -142 14 0 0 142 188 108 189 109 0 -359 14 0 0 359 376 -217 0 -142 14 0 0 142 377 217 0 0 0 -359 14 0 0 383 -398 -229 -377 217 384 222 0 467 -390 -226 0 452 -405 -234 0 -429c-5,-1 -9,-4 -13,-7l-378 218 0 -459 -377 -217 0 443 -3 2 -401 231 0 -459 -365 -210c-5,5 -12,8 -19,8 -15,0 -28,-12 -28,-27 0,-15 13,-28 28,-28 7,0 14,3 19,8l219 -126zm2881 0l14 0 0 134 231 -134 28 0 -259 150 0 435 377 -218 0 0 0 -367 14 0 0 375 -4 2 -387 224 0 421c12,3 20,13 20,26 0,15 -12,27 -27,27 -8,0 -15,-3 -19,-8l-379 219 0 -468 4 -2 387 -223 0 -593zm522 0l28 0 232 134 0 -134 13 0 0 134 232 -134 28 0 -81 47 -172 99 377 217 0 0 206 -119 171 -98 -252 -146 28 0 231 134 0 -134 14 0 0 142 7 4 -7 4 0 451 -4 2 -380 219 377 218 384 -222 0 -459 0 0 0 -359 14 0 0 367 377 218 0 -435 -260 -150 28 0 239 138 238 -138 28 0 -259 150 0 435 376 -218 0 0 0 -367 15 0 0 359 357 -206c0,-1 -1,-1 -1,-2 0,-13 9,-23 21,-26l0 -125 14 0 0 125c11,3 20,13 20,26 0,15 -12,27 -27,27 -9,0 -17,-5 -22,-11l-363 209 0 902 -3 2 -368 212c0,2 1,5 1,7l0 0c0,15 -12,28 -27,28 -15,0 -28,-13 -28,-28 0,-12 9,-23 21,-26l0 -413 -384 222 -391 -226 -391 226 -391 -226 -397 230 0 -468 3 -2 368 -212c0,-2 -1,-5 -1,-7 0,-13 9,-23 21,-26l0 -421 -260 -150zm2995 0l14 0 0 359 0 0 0 8 376 218 0 -435 -259 -150 28 0 238 138 239 -138 28 0 -260 150 0 435 377 -218 0 0 0 -367 15 0 0 359 284 -164 0 16 -285 165 0 871c12,3 20,14 20,27 0,15 -12,27 -27,27 -7,0 -14,-3 -19,-8l-379 218 0 -910 -376 -218 0 443 -4 2 -368 213c1,2 1,5 1,7 0,3 0,5 -1,7l372 215 0 451 391 226 0 880c4,1 9,3 12,7l365 -211 0 -459 0 0 0 -443 3 -2 295 -170 0 16 -284 164 0 0 0 435 284 -164 0 16 -278 160 278 160 0 16 -285 -164 0 435 285 164 0 16 -292 -168 0 0 -364 211c0,2 1,4 1,7 0,2 -1,5 -1,7l364 210 206 -118 86 -50 0 16 -285 165 0 435 285 -164 0 16 -278 160 278 160 0 16 -285 -164 0 0 -7 -4 -6 4 0 0 0 0 -370 213 376 218 292 -168 0 16 -285 164 0 435 285 -164 0 16 -285 164 0 421c5,1 9,4 13,7l272 -157 0 16 -265 153c0,3 1,5 1,7 0,15 -12,28 -28,28 -15,0 -27,-13 -27,-28 0,-12 9,-23 21,-26l0 -421 -391 -225 0 -452 -7 -4 7 -4 0 -8 7 4 377 -217 -384 -222 -384 -221 -398 229 0 -910 -364 -211c-5,5 -12,8 -20,8 -7,0 -14,-3 -19,-8l-378 219 0 -468 3 -2 387 -223 0 -8 7 4 7 -4 0 8 391 225 0 444 377 -218 0 -443 -391 -226 0 -429c-12,-3 -20,-13 -20,-26 0,-13 8,-23 20,-26l0 -429 4 -2 387 -224 0 -367zm-8193 2776l0 0 377 -217 0 435 -377 217 0 -435zm3503 3827l0 0 -377 218 0 -435 377 -218 0 435zm-781 -22l0 0c-5,2 -9,4 -13,7l-357 -206 370 -214 0 413zm-377 -654l0 0 0 -436 357 207c0,2 -1,5 -1,7 0,13 9,23 21,26l0 413 -377 -217zm377 -248l0 0c-5,1 -9,3 -13,7l-357 -207 370 -213 0 413zm-384 260l0 0 377 217 -171 99 -206 119 -377 -218 171 -99 206 -118zm7 455l0 0 357 206c0,3 -1,5 -1,8 0,2 1,4 1,7l-357 206 0 -427zm768 -919l0 0 -365 211c-3,-4 -8,-6 -12,-7l0 -421 377 -218 0 435zm-1940 -699l0 0 0 -413 376 218 0 435 -357 -206c0,-3 1,-5 1,-7 0,-13 -9,-24 -20,-27zm0 53l0 0c4,-1 9,-4 12,-7l357 206 -369 214 0 -413zm383 -260l0 0 -377 -218 185 -106 192 -111 377 217 -377 218zm-383 -665l0 0 376 -217 0 435 -376 217 0 -435zm-391 -1128l0 0 377 -217 0 435 -377 217 0 -435zm-14 895l0 0 -123 71 -254 146 0 -435 377 -218 0 436zm-391 668l0 0 -188 -108 -189 -109 0 -435 189 108 188 109 0 435zm-377 -1104l0 0 377 218 0 435 -188 -109 -189 -108 0 -436zm-404 188l0 0c-5,1 -10,3 -13,7l-364 -211 0 -435 377 218 0 421zm0 -1324l0 0 0 436 -377 -218 0 -421c4,-1 9,-4 12,-7l365 210zm13 1376l0 0c5,-1 9,-3 13,-7l364 211 0 435 -377 -218 0 -421zm0 880l0 0 377 -217 0 435 -377 218 0 -436zm-390 700l0 0c12,-4 20,-14 20,-27 0,-2 0,-5 -1,-7l358 -206 0 435 -377 217 0 -412zm377 646l0 0 -377 218 0 -436 377 -217 0 435zm-377 234l0 0 377 -218 0 435 -377 218 0 -435zm781 -452l0 0 365 -210c3,3 7,6 12,7l0 421 -377 218 0 -436zm-13 460l0 0 0 427 -377 -218 0 -435 376 218 0 8 1 0zm390 -1152l0 0 -377 -218 0 -435 189 109 188 108 0 436zm14 -452l0 0 0 -435 215 -124 162 -93 0 413c-12,3 -20,13 -20,26 0,2 0,5 1,7l-358 206zm391 234l0 0 0 -421c5,-1 9,-4 12,-7l365 210 0 421c-5,2 -9,4 -13,7l-364 -210zm0 459l0 0 364 -210c4,3 8,6 13,7l0 421 -7 4 0 0 -370 213 0 -435zm0 903l0 0 377 -218 0 435 -377 218 0 -435zm377 -234l0 0 -377 218 0 -436 377 -217 0 435zm-769 894l0 0 0 -418c12,-3 21,-13 21,-26 0,-1 0,-2 -1,-2l357 -206 0 435 -377 217zm1159 -239l0 0c-4,1 -9,3 -12,7l-364 -211 0 -435 376 218 0 421zm-376 -655l0 0 0 -435 376 217 0 436 -376 -218zm383 -230l0 0 -377 -217 377 -218 7 4 0 0 370 214 -377 217zm782 -435l0 0 377 218 -370 213 0 0 -7 4 -7 -4 0 0 -370 -213 377 -218zm-384 673l0 0 377 -218 0 436 -377 217 0 -435zm0 895l0 0 0 -436 377 218 0 435 -377 -217zm782 -23l0 0 0 -413 377 218 0 435 -358 -206c1,-3 1,-5 1,-7 0,-13 -9,-24 -20,-27zm1172 -203l0 0 0 -435 377 217 0 421c-5,2 -9,4 -13,7l-364 -210zm4676 -3972l0 0 0 421c-5,1 -9,3 -13,7l-176 -102 -188 -109 0 -435 188 109 189 109zm13 -1805l0 0 377 -218 0 435 -377 218 0 -435zm0 886l0 0 0 -435 377 -218 0 413c-11,3 -20,14 -20,27 0,2 0,4 1,7l-358 206zm-404 -1104l0 0 0 435 -365 211c-3,-4 -7,-6 -12,-7l0 -421 377 -218zm-377 1112l0 0 0 -421c5,-1 9,-3 12,-7l365 211 0 435 -377 -218zm768 460l0 0 0 435 -189 -109 -188 -109 0 -435 377 218zm-1549 435l0 0 0 -436 376 -217 0 413c-11,3 -20,13 -20,26 0,3 1,5 1,7l-357 207zm390 -240l0 0 0 -413 377 217 0 436 -357 -207c0,-2 1,-4 1,-7 0,-13 -9,-23 -21,-26zm391 256l0 0 377 -218 0 435 -377 218 0 -435zm0 451l0 0 377 -218 0 436 -377 217 0 -435zm391 218l0 0 0 -436 188 109 169 98c0,2 -1,4 -1,7 0,13 9,23 21,26l0 413 -377 -217zm391 -196l0 0c4,-1 9,-4 12,-7l365 211 0 435 -377 -218 0 -421zm0 888l0 0 377 218 0 435 -377 -217 0 -436zm-1187 -2497l0 0 -364 210c-3,-3 -8,-6 -12,-7l0 -421 6 -4 0 0 370 -214 0 436zm-767 -887l0 0 377 218 0 435 -377 -218 0 -435zm391 218l0 0 376 -218 0 435 -376 218 0 -435zm-1187 -226l0 0 0 435 -357 -206c0,-2 1,-5 1,-7 0,-13 -9,-23 -21,-26l0 -413 377 217zm-377 248l0 0c5,-1 9,-4 13,-7l357 206 -370 214 0 -413zm768 -30l0 0 -377 217 0 -435 377 -217 0 435zm-2735 217l0 0 -189 -108 -169 -98c1,-2 1,-5 1,-7 0,-13 -9,-23 -20,-26l0 -413 188 108 189 109 0 435zm-1173 -217l0 0 -377 217 0 -435 377 -217 0 435zm405 217l0 0 0 -435 377 -217 0 413c-12,3 -20,13 -20,26 0,2 0,5 1,7l-358 206zm768 452l0 0 -377 -218 0 -421c4,-1 9,-4 12,-7l176 102 189 108 0 436zm390 -226l0 0 -376 -218 0 -435 376 218 0 435zm405 226l0 0 0 -435 377 -218 0 413c-12,3 -20,13 -20,26 0,3 0,5 1,7l-358 207zm782 -436l0 0 364 -210c3,3 8,6 13,7l0 421 -377 218 0 -436zm774 440l0 0 -377 -218 370 -214 0 0 7 -4 7 4 0 0 370 214 -377 218zm405 -218l0 0 377 -218 377 218 -377 218 -377 -218z"/>
 </g>
</svg>
